<svg xmlns="http://www.w3.org/2000/svg" viewBox="0 0 320 240" width="320" height="240"><rect width="320" height="240" rx="28" fill="#fff0e3"/><circle cx="90" cy="122" r="64" fill="#ffffff" fill-opacity="0.72"/><circle cx="230" cy="122" r="64" fill="#ffffff" fill-opacity="0.72"/><g transform="translate(40 72) scale(4.166666666666667)" fill="none"><path d="M3 13V11C3 7.22876 3 5.34315 4.17157 4.17157C5.34315 3 7.22876 3 11 3H13C16.7712 3 18.6569 3 19.8284 4.17157C21 5.34315 21 7.22876 21 11V13C21 16.7712 21 18.6569 19.8284 19.8284C18.6569 21 16.7712 21 13 21H11C7.22876 21 5.34315 21 4.17157 19.8284C3 18.6569 3 16.7712 3 13Z" stroke="#1f2937" stroke-linecap="round" stroke-linejoin="round" stroke-width="1.008"/><path d="M12 9H3H7.5M12 9V15M12 9H21H16.5M12 15H3H7.5M12 15H21H16.5M7.5 3.5V9M7.5 9H16.5M16.5 3.5V9M7.5 15V20.5M7.5 15H16.5M16.5 15V20.5" stroke="#1f2937" stroke-linecap="round" stroke-linejoin="round" stroke-width="1.008"/></g><g transform="translate(180 72) scale(4.166666666666667)" fill="none"><path d="M3.89089 20.8727L3 21L3.12727 20.1091C3.32086 18.754 3.41765 18.0764 3.71832 17.4751C4.01899 16.8738 4.50296 16.3898 5.47091 15.4218L16.9827 3.91009C17.4062 3.48654 17.618 3.27476 17.8464 3.16155C18.2811 2.94615 18.7914 2.94615 19.2261 3.16155C19.4546 3.27476 19.6663 3.48654 20.0899 3.91009C20.5135 4.33365 20.7252 4.54543 20.8385 4.77389C21.0539 5.20856 21.0539 5.71889 20.8385 6.15356C20.7252 6.38201 20.5135 6.59379 20.0899 7.01735L8.57816 18.5291C7.61022 19.497 7.12625 19.981 6.52491 20.2817C5.92357 20.5823 5.246 20.6791 3.89089 20.8727Z" stroke="#1f2937" stroke-linecap="round" stroke-linejoin="round" stroke-width="1.008"/><path d="M6 15L9 18M8.5 12.5L11.5 15.5" stroke="#1f2937" stroke-linecap="round" stroke-linejoin="round" stroke-width="1.008"/></g><circle cx="136" cy="76" r="21" fill="#ffffff" stroke="#c2410c" stroke-width="3"/><g transform="translate(123 63) scale(1.0833333333333333)" fill="none"><path d="M13.9248 21H10.0752C5.44476 21 3.12955 21 2.27636 19.4939C1.42317 17.9879 2.60736 15.9914 4.97574 11.9985L6.90057 8.75333C9.17559 4.91778 10.3131 3 12 3C13.6869 3 14.8244 4.91777 17.0994 8.75332L19.0243 11.9985C21.3926 15.9914 22.5768 17.9879 21.7236 19.4939C20.8704 21 18.5552 21 13.9248 21Z" stroke="#c2410c" stroke-linecap="round" stroke-linejoin="round" stroke-width="3.8769230769230774"/><path d="M12 9V13" stroke="#c2410c" stroke-linecap="round" stroke-linejoin="round" stroke-width="3.8769230769230774"/><path d="M12.125 16.75H12M12.25 16.75C12.25 16.8881 12.1381 17 12 17C11.8619 17 11.75 16.8881 11.75 16.75C11.75 16.6119 11.8619 16.5 12 16.5C12.1381 16.5 12.25 16.6119 12.25 16.75Z" stroke="#c2410c" stroke-linecap="round" stroke-linejoin="round" stroke-width="3.8769230769230774"/></g></svg>
